<svg aria-hidden="true" style="position: absolute; width: 0; height: 0; overflow: hidden;" version="1.1" xmlns="http://www.w3.org/2000/svg" xmlns:xlink="http://www.w3.org/1999/xlink">
<defs>
<symbol id="icon-facebook2" viewBox="0 0 32 32">
<path d="M29 0h-26c-1.65 0-3 1.35-3 3v26c0 1.65 1.35 3 3 3h13v-14h-4v-4h4v-2c0-3.306 2.694-6 6-6h4v4h-4c-1.1 0-2 0.9-2 2v2h6l-1 4h-5v14h9c1.65 0 3-1.35 3-3v-26c0-1.65-1.35-3-3-3z"></path>
</symbol>
<symbol id="icon-instagram" viewBox="0 0 32 32">
<path d="M16 2.881c4.275 0 4.781 0.019 6.462 0.094 1.563 0.069 2.406 0.331 2.969 0.55 0.744 0.288 1.281 0.638 1.837 1.194 0.563 0.563 0.906 1.094 1.2 1.838 0.219 0.563 0.481 1.412 0.55 2.969 0.075 1.688 0.094 2.194 0.094 6.463s-0.019 4.781-0.094 6.463c-0.069 1.563-0.331 2.406-0.55 2.969-0.288 0.744-0.637 1.281-1.194 1.837-0.563 0.563-1.094 0.906-1.837 1.2-0.563 0.219-1.413 0.481-2.969 0.55-1.688 0.075-2.194 0.094-6.463 0.094s-4.781-0.019-6.463-0.094c-1.563-0.069-2.406-0.331-2.969-0.55-0.744-0.288-1.281-0.637-1.838-1.194-0.563-0.563-0.906-1.094-1.2-1.837-0.219-0.563-0.481-1.413-0.55-2.969-0.075-1.688-0.094-2.194-0.094-6.463s0.019-4.781 0.094-6.463c0.069-1.563 0.331-2.406 0.55-2.969 0.288-0.744 0.638-1.281 1.194-1.838 0.563-0.563 1.094-0.906 1.838-1.2 0.563-0.219 1.412-0.481 2.969-0.55 1.681-0.075 2.188-0.094 6.463-0.094zM16 0c-4.344 0-4.887 0.019-6.594 0.094-1.7 0.075-2.869 0.35-3.881 0.744-1.056 0.412-1.95 0.956-2.837 1.85-0.894 0.888-1.438 1.781-1.85 2.831-0.394 1.019-0.669 2.181-0.744 3.881-0.075 1.713-0.094 2.256-0.094 6.6s0.019 4.887 0.094 6.594c0.075 1.7 0.35 2.869 0.744 3.881 0.413 1.056 0.956 1.95 1.85 2.837 0.887 0.887 1.781 1.438 2.831 1.844 1.019 0.394 2.181 0.669 3.881 0.744 1.706 0.075 2.25 0.094 6.594 0.094s4.888-0.019 6.594-0.094c1.7-0.075 2.869-0.35 3.881-0.744 1.050-0.406 1.944-0.956 2.831-1.844s1.438-1.781 1.844-2.831c0.394-1.019 0.669-2.181 0.744-3.881 0.075-1.706 0.094-2.25 0.094-6.594s-0.019-4.887-0.094-6.594c-0.075-1.7-0.35-2.869-0.744-3.881-0.394-1.063-0.938-1.956-1.831-2.844-0.887-0.887-1.781-1.438-2.831-1.844-1.019-0.394-2.181-0.669-3.881-0.744-1.712-0.081-2.256-0.1-6.6-0.1v0z"></path>
<path d="M16 7.781c-4.537 0-8.219 3.681-8.219 8.219s3.681 8.219 8.219 8.219 8.219-3.681 8.219-8.219c0-4.537-3.681-8.219-8.219-8.219zM16 21.331c-2.944 0-5.331-2.387-5.331-5.331s2.387-5.331 5.331-5.331c2.944 0 5.331 2.387 5.331 5.331s-2.387 5.331-5.331 5.331z"></path>
<path d="M26.462 7.456c0 1.060-0.859 1.919-1.919 1.919s-1.919-0.859-1.919-1.919c0-1.060 0.859-1.919 1.919-1.919s1.919 0.859 1.919 1.919z"></path>
</symbol>
<symbol id="icon-twitter" viewBox="0 0 32 32">
<path d="M32 7.075c-1.175 0.525-2.444 0.875-3.769 1.031 1.356-0.813 2.394-2.1 2.887-3.631-1.269 0.75-2.675 1.3-4.169 1.594-1.2-1.275-2.906-2.069-4.794-2.069-3.625 0-6.563 2.938-6.563 6.563 0 0.512 0.056 1.012 0.169 1.494-5.456-0.275-10.294-2.888-13.531-6.862-0.563 0.969-0.887 2.1-0.887 3.3 0 2.275 1.156 4.287 2.919 5.463-1.075-0.031-2.087-0.331-2.975-0.819 0 0.025 0 0.056 0 0.081 0 3.181 2.263 5.838 5.269 6.437-0.55 0.15-1.131 0.231-1.731 0.231-0.425 0-0.831-0.044-1.237-0.119 0.838 2.606 3.263 4.506 6.131 4.563-2.25 1.762-5.075 2.813-8.156 2.813-0.531 0-1.050-0.031-1.569-0.094 2.913 1.869 6.362 2.95 10.069 2.95 12.075 0 18.681-10.006 18.681-18.681 0-0.287-0.006-0.569-0.019-0.85 1.281-0.919 2.394-2.075 3.275-3.394z"></path>
</symbol>
<symbol id="icon-pinterest" viewBox="0 0 32 32">
<path d="M16 2.138c-7.656 0-13.863 6.206-13.863 13.863 0 5.875 3.656 10.887 8.813 12.906-0.119-1.094-0.231-2.781 0.050-3.975 0.25-1.081 1.625-6.887 1.625-6.887s-0.412-0.831-0.412-2.056c0-1.925 1.119-3.369 2.506-3.369 1.181 0 1.756 0.887 1.756 1.95 0 1.188-0.756 2.969-1.15 4.613-0.331 1.381 0.688 2.506 2.050 2.506 2.462 0 4.356-2.6 4.356-6.35 0-3.319-2.387-5.638-5.787-5.638-3.944 0-6.256 2.956-6.256 6.019 0 1.194 0.456 2.469 1.031 3.163 0.113 0.137 0.131 0.256 0.094 0.4-0.106 0.438-0.338 1.381-0.387 1.575-0.063 0.256-0.2 0.306-0.463 0.188-1.731-0.806-2.813-3.337-2.813-5.369 0-4.375 3.175-8.387 9.156-8.387 4.806 0 8.544 3.425 8.544 8.006 0 4.775-3.012 8.625-7.194 8.625-1.406 0-2.725-0.731-3.175-1.594 0 0-0.694 2.644-0.863 3.294-0.313 1.206-1.156 2.712-1.725 3.631 1.3 0.4 2.675 0.619 4.106 0.619 7.656 0 13.863-6.206 13.863-13.863 0-7.662-6.206-13.869-13.863-13.869z"></path>
</symbol>
<symbol id="sunnyside" viewBox="0 0 124 24"><path d="M5.857 18.708c1.638 0 2.995-.36 4.07-1.08 1.075-.721 1.613-1.769 1.613-3.144-.083-1.855-1.464-3.246-4.144-4.173l-1.44-.597c-.314-.1-.538-.198-.67-.298a.45.45 0 01-.198-.373c0-.414.273-.62.819-.62.678 0 1.182.347 1.513 1.043l3.698-1.044c-.893-2.22-2.614-3.329-5.162-3.329-1.522 0-2.788.398-3.797 1.193C1.15 7.08.645 8.116.645 9.39c0 .398.058.766.174 1.106.116.34.29.638.521.894.232.257.455.48.67.671.215.19.488.369.82.534.33.166.582.286.756.36.174.075.41.162.707.261l.422.15 1.49.546c.363.133.6.244.707.335a.449.449 0 01.16.36c0 .431-.404.647-1.215.647-1.191 0-1.903-.53-2.134-1.59L0 14.509c.463 2.8 2.416 4.2 5.857 4.2zm11.636 0c1.638 0 2.845-.63 3.623-1.888v1.615h5.112V5.366h-5.112v7.156c0 1.474-.505 2.21-1.514 2.21-1.026 0-1.539-.736-1.539-2.21V5.366h-5.112v7.653c0 3.793 1.514 5.69 4.542 5.69zm16.103-.273V11.28c0-1.475.504-2.212 1.513-2.212 1.026 0 1.54.737 1.54 2.212v7.155h5.111v-7.652c0-3.793-1.513-5.69-4.541-5.69-1.638 0-2.846.63-3.623 1.888V5.366h-5.113v13.069h5.113zm15.383 0V11.28c0-1.475.504-2.212 1.514-2.212 1.025 0 1.538.737 1.538 2.212v7.155h5.113v-7.652c0-3.793-1.514-5.69-4.542-5.69-1.638 0-2.846.63-3.623 1.888V5.366h-5.113v13.069h5.113zM64.958 24l8.289-18.634H67.91l-2.532 6.684-2.258-6.684h-5.584l5.435 11.802L59.944 24h5.014zm13.67-5.292c1.638 0 2.995-.36 4.07-1.08 1.076-.721 1.614-1.769 1.614-3.144-.083-1.855-1.465-3.246-4.145-4.173l-1.44-.597c-.314-.1-.537-.198-.67-.298a.45.45 0 01-.198-.373c0-.414.273-.62.819-.62.678 0 1.183.347 1.514 1.043l3.698-1.044c-.894-2.22-2.614-3.329-5.162-3.329-1.522 0-2.788.398-3.797 1.193-1.01.795-1.514 1.83-1.514 3.105 0 .398.058.766.173 1.106.116.34.29.638.522.894.231.257.455.48.67.671.215.19.488.369.819.534.33.166.583.286.757.36.173.075.41.162.707.261l.422.15 1.489.546c.364.133.6.244.707.335a.449.449 0 01.161.36c0 .431-.405.647-1.216.647-1.19 0-1.902-.53-2.134-1.59l-3.723.844c.464 2.8 2.416 4.2 5.857 4.2zm9.8-14.137c.91 0 1.613-.215 2.11-.646.495-.43.744-.977.744-1.64 0-.678-.24-1.23-.72-1.651C90.082.21 89.371 0 88.428 0c-.943 0-1.655.211-2.135.634-.48.422-.72.973-.72 1.652 0 .662.249 1.209.745 1.64.497.43 1.2.645 2.11.645zm2.556 13.864V5.366H85.87v13.069h5.113zm7.74.273c1.737 0 2.977-.63 3.722-1.888v1.615h5.112V.472h-5.112v6.534c-.745-1.275-1.985-1.913-3.723-1.913-1.753 0-3.214.642-4.38 1.926-1.166 1.283-1.75 2.91-1.75 4.882 0 1.97.584 3.598 1.75 4.882 1.166 1.283 2.627 1.925 4.38 1.925zm1.39-3.9c-.729 0-1.312-.274-1.75-.82-.439-.547-.658-1.243-.658-2.087 0-.845.215-1.54.645-2.087.447-.547 1.034-.82 1.762-.82s1.311.273 1.75.82c.438.546.657 1.242.657 2.087 0 .844-.219 1.54-.657 2.087-.439.546-1.022.82-1.75.82zm16.698 3.9c2.597 0 4.624-.754 6.08-2.26l-2.11-2.833c-1.042.845-2.217 1.267-3.524 1.267-.992 0-1.799-.224-2.42-.67-.62-.448-.93-.879-.93-1.293h9.604c.083-.298.124-.687.124-1.167 0-2.054-.674-3.677-2.022-4.87-1.349-1.193-3.073-1.789-5.175-1.789-2.25 0-4.028.671-5.335 2.013-1.307 1.341-1.961 2.956-1.961 4.844 0 1.938.69 3.549 2.072 4.833 1.382 1.283 3.247 1.925 5.597 1.925zm2.208-8.149h-5.112c.033-.613.298-1.08.794-1.404.496-.323 1.084-.484 1.762-.484.678 0 1.266.165 1.762.497.497.331.761.795.794 1.391z"></path></symbol>
</defs>
</svg>
